<?xml version="1.0" encoding="utf-8"?>
<!-- Generator: Adobe Illustrator 23.0.1, SVG Export Plug-In . SVG Version: 6.00 Build 0)  -->
<svg version="1.1" id="Layer_1" xmlns="http://www.w3.org/2000/svg" xmlns:xlink="http://www.w3.org/1999/xlink" x="0px" y="0px"
	 viewBox="0 0 135 81" style="enable-background:new 0 0 135 81;" xml:space="preserve">
<style type="text/css">
	.st0{fill:#FFFFFF;}
	.st1{clip-path:url(#SVGID_2_);fill:#E92046;}
	.st2{clip-path:url(#SVGID_2_);fill-rule:evenodd;clip-rule:evenodd;fill:#0B86C8;}
	.st3{clip-path:url(#SVGID_2_);fill-rule:evenodd;clip-rule:evenodd;fill:#E92046;}
	.st4{clip-path:url(#SVGID_2_);fill-rule:evenodd;clip-rule:evenodd;fill:#231F20;}
	.st5{clip-path:url(#SVGID_2_);fill:#0B86C8;}
	.st6{clip-path:url(#SVGID_2_);fill:#60646B;}
	.st7{clip-path:url(#SVGID_2_);fill:#231F20;}
	.st8{clip-path:url(#SVGID_2_);}
	.st9{fill:#231F20;}
</style>
<rect y="0" class="st0" width="135" height="81"/>
<g>
	<g>
		<defs>
			<rect id="SVGID_1_" x="13.3" y="8.3" width="110.2" height="69.3"/>
		</defs>
		<clipPath id="SVGID_2_">
			<use xlink:href="#SVGID_1_"  style="overflow:visible;"/>
		</clipPath>
		<path class="st1" d="M24.6,35.4c0.7,0,1.1,0.5,1.2,1.7h-2.6C23.3,36,23.8,35.4,24.6,35.4 M27,39.3l-0.3-0.1c-0.5,0.8-0.9,1-1.5,1
			c-1.2,0-2.1-1.1-2.1-2.5v-0.1h3.9c-0.1-1.7-1.2-2.6-2.3-2.6c-1.4,0-2.6,1.2-2.6,3.3c0,1.6,1,3,2.7,3C25.9,41.1,26.6,40.4,27,39.3
			 M29.7,35.4c0.7,0,1.1,0.5,1.2,1.7h-2.7C28.4,36,28.8,35.4,29.7,35.4 M32.1,39.3l-0.3-0.1c-0.5,0.8-0.9,1-1.5,1
			c-1.2,0-2.1-1.1-2.1-2.5v-0.1h3.9c-0.1-1.7-1.2-2.6-2.3-2.6c-1.4,0-2.6,1.2-2.6,3.3c0,1.6,1,3,2.7,3C31,41.1,31.6,40.4,32.1,39.3
			 M35.7,36.4c0.1,0.4,0.4,0.5,0.7,0.5c0.3,0,0.6-0.3,0.6-0.7c0-0.4-0.5-1.2-2-1.2c-1.5,0-2.7,1.5-2.7,3.3c0,1.9,1.2,3,2.6,3
			c1,0,1.7-0.7,2.2-1.9l-0.2-0.1c-0.5,0.8-1,1-1.6,1c-1.3,0-2-1.2-2-2.6c0-1.4,0.6-2.2,1.5-2.2C35.4,35.4,35.5,35.8,35.7,36.4
			 M39.5,40.8c-0.5,0-0.9-0.3-0.9-1v-3.3c0.4-0.5,0.9-0.7,1.4-0.7c0.6,0,1.1,0.4,1.1,1.4v2.6c0,0.7-0.4,1-0.9,1V41H43v-0.3
			c-0.5,0-0.8-0.2-0.8-1v-3c0-1.2-0.7-1.9-1.5-1.9c-0.6,0-1.4,0.3-2,1V32l-0.2-0.1l-1.9,0.6v0.2c0.7,0,1,0.2,1,1.1v6
			c0,0.7-0.3,0.9-0.9,1V41h2.8V40.8z M46.2,36.4c0.1,0.4,0.4,0.5,0.7,0.5c0.3,0,0.6-0.3,0.6-0.7c0-0.4-0.5-1.2-2-1.2
			c-1.5,0-2.7,1.5-2.7,3.3c0,1.9,1.2,3,2.6,3c1,0,1.7-0.7,2.2-1.9l-0.3-0.1c-0.5,0.8-1,1-1.6,1c-1.3,0-2-1.2-2-2.6
			c0-1.4,0.6-2.2,1.5-2.2C46,35.4,46,35.8,46.2,36.4 M50.7,40.8c-0.2,0-0.4-0.1-0.6-0.2c-0.2-0.2-0.4-0.4-0.4-0.9v-3.1
			c0.2-0.4,0.4-0.7,0.6-0.7c0.4-0.1,0.6,0.4,1.1,0.3c0.4-0.1,0.5-0.5,0.5-0.8c-0.1-0.5-0.6-0.7-1-0.6c-0.3,0.1-0.6,0.3-0.9,0.6
			c-0.2,0.2-0.3,0.4-0.4,0.7v-1.1L49.5,35l-1.7,0.6v0.2c0.6,0,1,0.3,1,1.2v2.8c0,0.7-0.4,0.9-0.9,1V41h2.9V40.8z M54.8,39.7
			c0-0.8-0.4-1-0.6-1c-0.2,0-0.3,0.1-0.4,0.3c0,0.1,0,0.4,0.2,0.6c0.2,0.1,0.4,0.3,0.4,0.4c0,0.3-0.3,0.4-0.6,0.4
			c-0.5,0-0.8-0.3-0.8-0.9c0-0.7,0.4-1.4,2.2-2v2.4c0,0.7,0.3,1.1,1,1.1c0.5,0,0.7-0.2,1-0.7l-0.2-0.2c-0.2,0.2-0.2,0.3-0.4,0.3
			c-0.2,0-0.4-0.2-0.4-0.9v-2.8c0-1.3-0.6-2-1.9-2c-1.1,0-2,0.5-2,1.3c0,0.4,0.2,0.7,0.6,0.7c0.4,0,0.6-0.3,0.6-0.7
			c0-0.4-0.3-0.8,0.6-0.8c0.7,0,1.1,0.6,1.1,1.5v0.3c-2.8,0.9-3.3,1.9-3.3,2.7c0,0.7,0.5,1.4,1.4,1.4C53.9,41.1,54.8,40.8,54.8,39.7
			 M59.9,40.8c-0.5,0-1-0.3-1-1v-4.1h1.5v-0.5H59v-1.5c0-0.7,0.2-1.1,0.7-1.1c0.4,0,0.5,0.3,0.6,0.7c0.1,0.3,0.4,0.5,0.6,0.5
			c0.3,0,0.6-0.3,0.6-0.6c0-0.3-0.4-1-1.6-1c-0.9,0-1.9,0.8-1.9,2.6v0.4H57v0.5H58v4.2c0,0.7-0.4,0.9-0.9,0.9V41h2.8V40.8z
			 M63.4,35.6v-0.5h-1.3v-1.8h-0.3c-0.2,0.9-0.8,1.8-1.7,1.8v0.5h1v4.2c0,0.8,0.4,1.3,1.2,1.3c0.5,0,0.9-0.3,1.3-0.9L63.4,40
			c-0.2,0.3-0.4,0.4-0.7,0.4c-0.3,0-0.5-0.2-0.5-0.9v-3.9H63.4z"/>
		<path class="st1" d="M63.9,33.9c0,0.3-0.2,0.5-0.5,0.5c-0.3,0-0.5-0.2-0.5-0.5c0-0.3,0.2-0.5,0.5-0.5
			C63.6,33.3,63.9,33.6,63.9,33.9 M62.9,33.9c0,0.2,0.2,0.4,0.4,0.4c0.2,0,0.4-0.2,0.4-0.4c0-0.2-0.2-0.4-0.4-0.4
			C63.1,33.4,62.9,33.6,62.9,33.9 M63.2,34.2h-0.2v-0.6h0.3c0.1,0,0.1,0,0.2,0c0,0,0.1,0.1,0.1,0.1c0,0.1,0,0.1-0.1,0.2l0.1,0.3
			h-0.2l-0.1-0.3h-0.1V34.2z M63.2,33.8L63.2,33.8c0.1,0,0.1,0,0.2,0c0,0,0,0,0-0.1c0,0,0,0,0-0.1c0,0,0,0-0.1,0h-0.1V33.8z"/>
		<path class="st1" d="M21.7,32L21.7,32c-0.8-0.8-1.7-1.3-3.2-1.5c-1.4-0.2-2.7,0.1-3.6,0.8c-1,0.7-1.5,1.6-1.6,2.7
			c-0.1,0.8,0.1,1.5,0.5,2.1c0.4,0.6,0.8,0.9,1.3,1c0.2,0,0.5,0,0.6-0.2c0.2-0.1,0.2-0.3,0.2-0.5c0-0.1,0-0.3-0.2-0.4
			c-0.2-0.1-0.4-0.1-0.8-0.2c-0.4-0.1-0.7-0.4-0.9-0.6c-0.2-0.2-0.3-0.7-0.1-1.5c0.1-0.6,0.7-1.4,1.2-1.7c0.7-0.4,1.5-0.8,2.7-0.7
			c1.1,0.1,2,0.4,2.6,1.1c0.7,0.8,0.8,1.7,0.7,2.6c-0.1,0.6-0.3,1.1-0.8,1.5C20,37,19.5,37.2,19,37.2c-0.1,0-0.1,0-0.2,0
			c0,0,0,0.1,0,0.1l0,0.1v0v0h0c0.5,0.2,0.8,0.4,1,0.6c0.2,0.2,0.3,0.5,0.4,0.8c0,0.4,0,0.7-0.2,1c-0.2,0.3-0.5,0.4-0.8,0.5
			c-1,0.1-1-0.8-0.8-1c0.2-0.3,0.4-0.2,0.3-0.6c-0.1-0.4-0.5-0.3-0.5-0.3c-0.1,0-0.6,0.2-0.5,1c0.1,0.8,0.7,1.4,1.4,1.6v0
			c0,0,0.1,0,0.1,0c0,0,0,0,0.1,0c0.3,0.1,0.5,0.1,0.8,0.1c0.5,0,0.9-0.3,1.2-0.6c0.3-0.4,0.4-0.8,0.3-1.4c0-0.4-0.2-0.7-0.4-0.9
			c-0.2-0.3-0.5-0.5-1-0.7c0.4-0.1,0.7-0.2,1.1-0.4c0.8-0.6,1.2-1.4,1.3-2.4C22.8,33.7,22.5,32.9,21.7,32"/>
		<path class="st1" d="M17.2,36.2L17.2,36.2v-3.5h-0.3l-1.7,0.7l0.1,0.2c0.2-0.1,0.3-0.1,0.4-0.1c0.1,0,0.2,0,0.3,0.1
			s0.1,0.2,0.1,0.3c0,0.2,0,0.7,0,1.3v4.4c0,0.4,0,0.6-0.1,0.7c0,0.1-0.1,0.2-0.2,0.2c-0.1,0.1-0.3,0.1-0.6,0.1V41h1.9v-0.2v-1.1
			v-3.1V36.2z"/>
		<path class="st2" d="M116.6,8.3H93.8v7.3h12.8c1.6,0,3.6-0.6,5.2-2.3L116.6,8.3z"/>
		<path class="st3" d="M93.8,19.3h11.9l-4.7,4.8c-1.3,1.4-3.1,2.6-5.6,2.6h-1.5V19.3z"/>
		<path class="st3" d="M108.4,33.8V22l-5,5c-0.8,0.9-2.1,2-2.1,4.4v2.4H108.4z"/>
		<path class="st2" d="M112.2,33.9V20.8c0-1.4,0-2.6,1.4-4.1l5.6-5.8v23H112.2z"/>
		<path class="st4" d="M116.9,36.1c-1.3,0-2.2,0.5-2.3,1.8h1.2c0-0.5,0.4-0.9,1-0.9c0.5,0,1,0.1,1,0.8c0,0.5-0.6,0.6-1.5,0.7
			c-0.8,0.1-1.9,0.6-2.2,1.4v-1.4c0-1.4-0.3-2.3-1.9-2.3c-0.5,0-1.1,0.2-1.4,0.5h0l-0.2-0.4h-1.3v3.5c-0.2-0.8-0.9-1.1-1.7-1.2
			c-0.9-0.2-1.8-0.3-1.9-0.8c0-0.6,0.6-0.6,1-0.6c0.5,0,1,0.3,1.1,0.8h1.2c-0.1-1.4-1.1-1.9-2.3-1.9c-1.2,0-2.3,0.6-2.3,1.8
			c0,1,0.8,1.4,1.7,1.6c1.1,0.2,1.7,0.4,1.7,0.9c0,0.5-0.6,0.8-1,0.8c-0.6,0-1.2-0.4-1.4-1h-1.1c0-1-0.8-1.3-1.7-1.5
			c-0.9-0.2-1.8-0.3-1.9-0.8c0-0.6,0.6-0.6,1-0.6c0.6,0,1,0.3,1.1,0.8h1.2c-0.1-1.4-1.1-1.9-2.3-1.9c-1.2,0-2.3,0.6-2.3,1.8
			c0,1,0.8,1.4,1.7,1.6c1.1,0.2,1.8,0.4,1.8,0.9c0,0.5-0.6,0.8-1,0.8c-0.6,0-1.2-0.4-1.4-1h-1.2v0h-1.4c-0.2,0.4-0.7,0.8-1.3,0.8
			c-0.8,0-1.3-0.4-1.4-1.4h3.9c0.1-1.7-0.7-3.3-2.6-3.3c-1.7,0-2.9,1.3-2.9,3c0,0.1,0,0.1,0,0.2h-1.4c-0.3,0.7-0.7,1.5-2,1.5
			c-1.5,0-2.1-1.4-2.1-2.7c0-1.3,0.6-2.8,2.1-2.8c1.4,0,1.7,0.7,1.9,1.3h1.5c-0.2-1.6-1.5-2.5-3.4-2.5c-2.1,0-3.7,1.7-3.7,4
			c0,2.2,1.4,4,3.7,4c1.8,0,3-1,3.4-2.4c0.2,1.4,1.2,2.4,2.8,2.4c1.2,0,2.2-0.5,2.6-1.8c0.4,1.2,1.4,1.8,2.7,1.8
			c1.1,0,2.3-0.4,2.5-1.6c0.4,1.1,1.3,1.6,2.6,1.6c1.2,0,2.3-0.4,2.5-1.6V42h1.4V39c0-1.1,0.4-1.6,1.1-1.6c0.7,0,0.9,0.5,0.9,1.4V42
			h1.5v-1.1c0.2,0.7,0.9,1.2,1.8,1.2c0.7,0,1.5-0.1,2-0.6c0,0.2,0.1,0.4,0.1,0.5l1.2,0v-4.2C119.2,36.5,118.1,36.1,116.9,36.1
			 M96.5,37.4c0.8,0,1.1,0.4,1.2,1.2h-2.5C95.3,38.1,95.6,37.4,96.5,37.4 M117.8,39.8c0,0.3-0.1,1.3-1.3,1.3c-0.5,0-1-0.1-1-0.7
			c0-0.6,0.5-0.8,0.8-0.9c0.3-0.1,1.2-0.3,1.5-0.3V39.8z"/>
		<path class="st5" d="M121.8,10.1c0,0.4-0.3,0.7-0.8,0.7c-0.4,0-0.8-0.3-0.8-0.8c0-0.4,0.3-0.8,0.8-0.8
			C121.4,9.3,121.8,9.7,121.8,10.1 M120.4,10.1c0,0.3,0.3,0.6,0.6,0.6c0.3,0,0.6-0.3,0.6-0.6c0-0.3-0.3-0.6-0.6-0.6
			C120.7,9.4,120.4,9.7,120.4,10.1 M120.9,10.5h-0.2V9.6h0.4c0.1,0,0.2,0,0.2,0.1c0.1,0,0.1,0.1,0.1,0.2c0,0.1-0.1,0.2-0.2,0.2
			l0.2,0.4h-0.3l-0.1-0.3h-0.1V10.5z M120.9,10h0.1c0.1,0,0.1,0,0.1,0c0,0,0-0.1,0-0.1c0,0,0-0.1,0-0.1c0,0,0,0-0.1,0h-0.1V10z"/>
		<rect x="75" y="19" class="st6" width="0.3" height="23"/>
		<path class="st7" d="M60.7,46.6L60.7,46.6c0.1,4.1,5.3,3.3,7.6,7.9h0.1C68.2,50.4,61.5,47.9,60.7,46.6"/>
		<polygon class="st4" points="18.5,54.9 13.3,54.9 13.3,56.7 15.1,56.7 15.1,62.4 17.5,62.4 17.5,56.7 19.6,56.7 		"/>
		<polygon class="st4" points="24.5,60.4 22,60.4 22,59.6 24.5,59.6 24.5,57.7 22,57.7 22,56.7 24.5,56.7 24.5,54.9 19.7,54.9 
			19.7,62.4 24.5,62.4 		"/>
		<polygon class="st4" points="31.8,54.9 29.5,54.9 28.4,56.4 27.2,54.9 24.5,54.9 27,58.6 24.7,62.4 26.9,62.4 28.3,60.5 
			29.6,62.4 32.2,62.4 29.5,58.4 		"/>
		<path class="st4" d="M38.3,54.8v7.6h2.3v-5.7h0.5c1.2-0.1,1.2,2.2-0.2,2.2c-0.1,0,2.4,3.6,2.4,3.6h2.5c0,0-2.2-3.4-2.2-3.4
			c0.3-0.1,0.8-1,0.8-1.8c0-1.1-1.1-2.3-2.6-2.3H38.3z"/>
		<path class="st4" d="M52.4,58.7c0-1.8-1.3-3.9-3.9-3.9s-3.9,2.1-3.9,3.9c0,1.9,1.4,3.9,3.9,3.9C50.9,62.6,52.4,60.6,52.4,58.7
			 M50.1,58.7c0,1-0.7,1.7-1.7,1.7s-1.7-0.7-1.7-1.7c0-1,0.7-1.7,1.7-1.7S50.1,57.6,50.1,58.7"/>
		<polygon class="st4" points="59.5,54.9 57.3,54.9 57.3,58.2 55.1,54.9 52.9,54.9 52.9,62.4 55.1,62.4 55.1,58.8 57.6,62.4 
			59.5,62.4 		"/>
		<polygon class="st4" points="37.1,54.9 31.9,54.9 31.9,56.7 33.7,56.7 33.7,62.4 36.1,62.4 36.1,56.7 38.3,56.7 		"/>
		<path class="st7" d="M67.8,55.1c-1.7-3-5.7-3.6-6.4-4.8h-0.1c0.6,3.1,3.2,3,4.9,4.8l-3.8,7.3h1.5l0.8-1.6h4.6l0.8,1.6h1.5
			L67.8,55.1z M65.2,59.7l1.8-3.4l1.8,3.4H65.2z"/>
		<path class="st7" d="M87.5,55.1h-1.6l-3.8,7.3h1.5l0.8-1.6H89l0.8,1.6h1.5L87.5,55.1L87.5,55.1z M84.9,59.7l1.8-3.4l1.8,3.4H84.9z
			"/>
		<polygon class="st7" points="74.4,60.9 71.3,55.1 69.8,55.1 73.7,62.4 75.2,62.4 79.1,55.1 77.5,55.1 		"/>
		<rect x="79.9" y="55.1" class="st7" width="1.4" height="7.3"/>
		<polygon class="st7" points="90.1,56.4 93.5,56.4 93.5,62.4 94.8,62.4 94.8,56.4 98.2,56.4 98.2,55.1 90.1,55.1 		"/>
		<path class="st7" d="M109.7,55.9c-0.8-0.6-1.9-1-3.2-1c-1.2,0-2.3,0.3-3.2,1c-1,0.7-1.5,1.7-1.5,2.9c0,1.2,0.5,2.1,1.5,2.9
			c0.8,0.6,1.9,1,3.2,1c1.3,0,2.3-0.3,3.2-1c1-0.7,1.5-1.7,1.5-2.9C111.2,57.6,110.7,56.6,109.7,55.9 M108.9,60.6
			c-0.6,0.5-1.4,0.7-2.3,0.7c-1,0-1.8-0.2-2.4-0.7c-0.6-0.5-0.9-1.1-0.9-1.9c0-0.7,0.3-1.4,0.9-1.8c0.6-0.5,1.4-0.7,2.3-0.7
			c0.9,0,1.6,0.2,2.2,0.6c0.7,0.5,1,1.1,1,1.9C109.8,59.5,109.5,60.1,108.9,60.6"/>
		<polygon class="st7" points="119.1,55.1 119.1,60.8 113.8,55.1 112.2,55.1 112.2,62.4 113.6,62.4 113.6,56.8 118.8,62.4 
			120.4,62.4 120.4,55.1 		"/>
		<rect x="99.4" y="55.1" class="st7" width="1.4" height="7.3"/>
		<g class="st8">
			<path class="st9" d="M17.3,72.6h-1.1l-0.3-0.9h-1.4l-0.3,0.9h-0.9l1.4-4.5h1.2L17.3,72.6z M15.7,70.9l-0.5-1.6l-0.5,1.6H15.7z"/>
			<path class="st9" d="M21.7,70.9c0,0.7-0.1,1-0.4,1.3c-0.3,0.3-0.8,0.4-1.3,0.4c-0.6,0-1.1-0.1-1.4-0.4c-0.3-0.3-0.4-0.6-0.4-1.3
				v-2.8h1.1v2.8c0,0.4,0,0.5,0.1,0.6c0.1,0.2,0.3,0.2,0.6,0.2c0.3,0,0.5-0.1,0.7-0.2c0.1-0.1,0.1-0.3,0.1-0.7v-2.8h0.9V70.9z"/>
		</g>
	</g>
	<g>
		<path class="st9" d="M25.9,69h-1.1v3.6h-1.1V69h-1.1v-0.9h3.3V69z"/>
		<path class="st9" d="M30.4,72.6h-1v-1.8H28v1.8h-1v-4.5h1v1.7h1.4v-1.7h1V72.6z"/>
		<path class="st9" d="M34.9,68.7c0.3,0.4,0.5,1,0.5,1.7c0,0.6-0.2,1.2-0.5,1.6c-0.3,0.4-0.8,0.6-1.4,0.6c-0.6,0-1-0.2-1.4-0.6
			c-0.3-0.4-0.5-1-0.5-1.7c0-0.6,0.2-1.2,0.5-1.6c0.3-0.4,0.8-0.6,1.4-0.6S34.6,68.3,34.9,68.7z M32.9,69.3
			c-0.1,0.3-0.2,0.6-0.2,1.1c0,1,0.3,1.5,0.8,1.5c0.5,0,0.8-0.5,0.8-1.4s-0.3-1.5-0.8-1.5C33.2,68.9,33,69,32.9,69.3z"/>
		<path class="st9" d="M37.7,72.6h-1v-4.5h2c0.6,0,0.9,0.1,1.2,0.3c0.3,0.2,0.5,0.6,0.5,1c0,0.3-0.1,0.6-0.3,0.9
			c-0.1,0.1-0.2,0.2-0.4,0.3l0.8,2h-1.2l-0.7-1.8h-0.7V72.6z M37.7,70.1h0.6c0.3,0,0.4,0,0.6-0.1c0.2-0.1,0.3-0.3,0.3-0.5
			c0-0.2-0.1-0.3-0.2-0.4c-0.1-0.1-0.2-0.1-0.6-0.1h-0.6V70.1z"/>
		<path class="st9" d="M42.6,72.6h-1v-4.5h1V72.6z"/>
		<path class="st9" d="M45,71.7h2.3v0.8h-3.6v-0.8L46,69h-2.1v-0.8h3.4v0.8L45,71.7z"/>
		<path class="st9" d="M49.5,69v0.9h1.7v0.8h-1.7v1h2.1v0.9h-3.2v-4.5h3.2V69H49.5z"/>
		<path class="st9" d="M54.2,68.1c0.9,0,1.3,0.2,1.7,0.6c0.4,0.4,0.6,1,0.6,1.6c0,0.6-0.2,1.2-0.6,1.6c-0.4,0.4-0.9,0.6-1.6,0.6
			h-1.5v-4.5H54.2z M53.8,71.8h0.4c0.4,0,0.6-0.1,0.8-0.4c0.2-0.3,0.3-0.7,0.3-1.1c0-0.4-0.1-0.8-0.3-1c-0.2-0.3-0.4-0.4-0.8-0.4
			h-0.4V71.8z"/>
		<path class="st9" d="M62.1,69.4c-0.2-0.4-0.4-0.5-0.8-0.5c-0.4,0-0.6,0.1-0.6,0.4c0,0.3,0.2,0.4,0.6,0.5c0.7,0.1,0.9,0.2,1.2,0.4
			c0.4,0.3,0.6,0.6,0.6,1.1c0,0.5-0.3,0.9-0.7,1.2c-0.3,0.2-0.7,0.3-1.2,0.3c-0.5,0-0.9-0.1-1.3-0.4c-0.3-0.2-0.4-0.4-0.5-0.9l1-0.2
			c0.1,0.4,0.4,0.6,0.9,0.6c0.4,0,0.7-0.2,0.7-0.5c0-0.3-0.2-0.4-0.8-0.5c-0.5-0.1-0.8-0.2-1-0.3c-0.3-0.2-0.5-0.6-0.5-1
			c0-0.4,0.2-0.8,0.5-1s0.7-0.4,1.2-0.4c0.5,0,0.9,0.1,1.2,0.3c0.2,0.2,0.4,0.3,0.5,0.7L62.1,69.4z"/>
		<path class="st9" d="M65.4,69v0.9H67v0.8h-1.7v1h2.1v0.9h-3.2v-4.5h3.2V69H65.4z"/>
		<path class="st9" d="M69.7,72.6h-1v-4.5h2c0.6,0,0.9,0.1,1.2,0.3c0.3,0.2,0.5,0.6,0.5,1c0,0.3-0.1,0.6-0.3,0.9
			c-0.1,0.1-0.2,0.2-0.4,0.3l0.8,2h-1.2l-0.7-1.8h-0.7V72.6z M69.7,70.1h0.6c0.3,0,0.4,0,0.6-0.1c0.2-0.1,0.3-0.3,0.3-0.5
			c0-0.2-0.1-0.3-0.2-0.4c-0.1-0.1-0.2-0.1-0.6-0.1h-0.6V70.1z"/>
	</g>
	<g>
		<path class="st9" d="M75.4,72.6h-1.1L73,68.1h1.1l0.9,3.2l0.9-3.2h0.9L75.4,72.6z"/>
	</g>
	<g>
		<path class="st9" d="M78.8,72.6h-1v-4.5h1V72.6z"/>
		<path class="st9" d="M82.7,69.9c0-0.3,0-0.4-0.1-0.6c-0.1-0.2-0.3-0.4-0.6-0.4c-0.5,0-0.8,0.5-0.8,1.5c0,1,0.3,1.4,0.8,1.4
			c0.4,0,0.7-0.3,0.8-0.8l1,0.1c-0.1,0.4-0.1,0.7-0.3,0.9c-0.3,0.5-0.8,0.7-1.5,0.7c-1.2,0-2-0.9-2-2.3c0-0.7,0.2-1.2,0.5-1.6
			c0.4-0.4,0.8-0.7,1.5-0.7c0.6,0,1.1,0.2,1.4,0.6c0.2,0.3,0.3,0.6,0.4,1.1L82.7,69.9z"/>
		<path class="st9" d="M86,69v0.9h1.7v0.8H86v1h2.1v0.9H85v-4.5h3.2V69H86z"/>
	</g>
	<g>
		<path class="st9" d="M92.6,69v1h1.7v0.8h-1.7v1.7h-1.1v-4.5h3.2V69H92.6z"/>
		<path class="st9" d="M99.1,72.6H98l-0.3-0.9h-1.4L96,72.6h-0.9l1.4-4.5h1.2L99.1,72.6z M97.5,70.9L97,69.3l-0.5,1.6H97.5z"/>
	</g>
	<g>
		<path class="st9" d="M102.5,69.9c0-0.3,0-0.4-0.1-0.6c-0.1-0.2-0.3-0.4-0.6-0.4c-0.5,0-0.8,0.5-0.8,1.5c0,1,0.3,1.4,0.8,1.4
			c0.4,0,0.7-0.3,0.8-0.8l1,0.1c-0.1,0.4-0.1,0.7-0.3,0.9c-0.3,0.5-0.8,0.7-1.5,0.7c-1.2,0-2-0.9-2-2.3c0-0.7,0.2-1.2,0.5-1.6
			c0.4-0.4,0.8-0.7,1.5-0.7c0.6,0,1.1,0.2,1.4,0.6c0.2,0.3,0.3,0.6,0.4,1.1L102.5,69.9z"/>
		<path class="st9" d="M105.8,72.6h-1v-4.5h1V72.6z"/>
		<path class="st9" d="M110,71.7v0.9h-2.8v-4.5h1.1v3.6H110z"/>
		<path class="st9" d="M112.1,72.6h-1v-4.5h1V72.6z"/>
	</g>
	<g>
		<path class="st9" d="M116.4,69h-1.1v3.6h-1.1V69h-1.1v-0.9h3.3V69z"/>
		<path class="st9" d="M119.5,70.7v1.9h-1v-1.9l-1.4-2.6h1.2l0.9,1.7l0.8-1.7h0.9L119.5,70.7z"/>
	</g>
</g>
</svg>
